<svg width="34" height="47" viewBox="0 0 34 47" fill="none" xmlns="http://www.w3.org/2000/svg">
<path d="M17.0387 0C7.98316 0 0.616211 7.36783 0.616211 16.4245C0.616211 25.1854 15.6302 45.1461 16.2698 45.9924C16.4495 46.234 16.7374 46.375 17.0388 46.375C17.3402 46.375 17.6281 46.234 17.8078 45.9924C18.4473 45.1461 33.4614 25.1855 33.4614 16.4245C33.4612 7.36783 26.0942 0 17.0387 0ZM17.0387 25.1198C12.2453 25.1198 8.34442 21.2185 8.34442 16.4245C8.34442 11.6304 12.2453 7.72914 17.0387 7.72914C21.8321 7.72914 25.733 11.6304 25.733 16.4245C25.733 21.2185 21.8321 25.1198 17.0387 25.1198Z" fill="url(#paint0_linear)"/>
<defs>
<linearGradient id="paint0_linear" x1="-5.51659" y1="-2.43807e-07" x2="41.546" y2="10.1183" gradientUnits="userSpaceOnUse">
<stop stop-color="#4BD8B5"/>
<stop offset="1" stop-color="#49D6DF"/>
</linearGradient>
</defs>
</svg>
